<svg width="168" height="32" viewBox="0 0 168 32" fill="none" xmlns="http://www.w3.org/2000/svg">
<path d="M1.5645 29.3894C1.22727 29.6299 1.14887 30.0983 1.3894 30.4355C1.62992 30.7727 2.09828 30.8511 2.4355 30.6106L1.5645 29.3894ZM168 30L164.337 22.1527L159.372 29.2488L168 30ZM2.4355 30.6106C3.29704 29.9961 4.16202 29.391 5.03038 28.7952L4.18182 27.5583C3.30587 28.1593 2.43342 28.7697 1.5645 29.3894L2.4355 30.6106ZM10.3179 25.3111C12.1096 24.1783 13.9149 23.0851 15.7332 22.0322L14.9815 20.7342C13.1462 21.7969 11.3243 22.9002 9.51631 24.0432L10.3179 25.3111ZM21.2725 18.971C23.1461 17.9846 25.0326 17.0405 26.9315 16.1394L26.2885 14.7842C24.3705 15.6943 22.4654 16.6477 20.5737 17.6438L21.2725 18.971ZM32.7051 13.5493C34.6528 12.7255 36.6127 11.9466 38.5844 11.2135L38.0616 9.80752C36.069 10.5485 34.0886 11.3355 32.1208 12.1678L32.7051 13.5493ZM44.561 9.14307C46.5714 8.49739 48.5933 7.8989 50.626 7.34839L50.2339 5.90055C48.1786 6.45716 46.1346 7.06223 44.1023 7.71492L44.561 9.14307ZM56.7673 5.83915C58.8255 5.38462 60.8942 4.97904 62.9728 4.62323L62.7197 3.14473C60.6174 3.50461 58.5252 3.91478 56.4438 4.37444L56.7673 5.83915ZM69.229 3.70693C71.3175 3.45243 73.4154 3.24803 75.522 3.09454L75.413 1.5985C73.2821 1.75377 71.1601 1.96052 69.0476 2.21794L69.229 3.70693ZM81.8379 2.78824C82.8899 2.76278 83.944 2.75 85 2.75V1.25C83.9319 1.25 82.8657 1.26293 81.8016 1.28868L81.8379 2.78824ZM85 2.75C86.056 2.75 87.1101 2.76278 88.1621 2.78824L88.1984 1.28868C87.1343 1.26293 86.0681 1.25 85 1.25V2.75ZM94.478 3.09454C96.5846 3.24803 98.6825 3.45243 100.771 3.70693L100.952 2.21794C98.8399 1.96052 96.7179 1.75377 94.587 1.5985L94.478 3.09454ZM107.027 4.62323C109.106 4.97904 111.174 5.38461 113.233 5.83915L113.556 4.37444C111.475 3.91478 109.383 3.5046 107.28 3.14473L107.027 4.62323ZM119.374 7.34839C121.407 7.8989 123.429 8.49739 125.439 9.14307L125.898 7.71492C123.865 7.06223 121.821 6.45716 119.766 5.90055L119.374 7.34839ZM131.416 11.2135C133.387 11.9466 135.347 12.7255 137.295 13.5493L137.879 12.1678C135.911 11.3355 133.931 10.5485 131.938 9.80752L131.416 11.2135ZM143.068 16.1394C144.967 17.0405 146.854 17.9846 148.728 18.971L149.426 17.6438C147.535 16.6477 145.629 15.6943 143.712 14.7842L143.068 16.1394ZM154.267 22.0322C156.085 23.0851 157.89 24.1783 159.682 25.3111L160.484 24.0432C158.676 22.9002 156.854 21.7969 155.018 20.7342L154.267 22.0322ZM1.12899 28.7788C0.454538 29.2598 0.297749 30.1966 0.778794 30.871C1.25984 31.5455 2.19656 31.7023 2.87101 31.2212L1.12899 28.7788ZM168 30L160.674 14.3053L150.745 28.4975L168 30ZM2.87101 31.2212C3.72885 30.6094 4.59009 30.0068 5.45466 29.4137L3.75753 26.9399C2.8778 27.5434 2.0016 28.1564 1.12899 28.7788L2.87101 31.2212ZM10.7186 25.945C12.5023 24.8174 14.2993 23.7292 16.109 22.6813L14.6057 20.0851C12.7618 21.1528 10.9316 22.2611 9.11554 23.4092L10.7186 25.945ZM21.6219 19.6347C23.4864 18.653 25.3636 17.7135 27.253 16.817L25.967 14.1066C24.0395 15.0212 22.1251 15.9793 20.2243 16.9801L21.6219 19.6347ZM32.9973 14.2401C34.9349 13.4205 36.8846 12.6457 38.8458 11.9164L37.8002 9.10455C35.7971 9.8494 33.8065 10.6405 31.8286 11.4771L32.9973 14.2401ZM44.7903 9.85714C46.7898 9.21498 48.8006 8.61977 50.822 8.07231L50.0378 5.17663C47.9713 5.73629 45.9162 6.34464 43.873 7.00084L44.7903 9.85714ZM56.929 6.57151C58.9756 6.11953 61.0326 5.71626 63.0993 5.36247L62.5932 2.40549C60.479 2.76739 58.3751 3.17987 56.2821 3.64209L56.929 6.57151ZM69.3197 4.45142C71.3962 4.19839 73.482 3.99517 75.5765 3.84255L75.3585 0.850484C73.2154 1.00664 71.0814 1.21456 68.9569 1.47345L69.3197 4.45142ZM81.8561 3.53802C82.902 3.51271 83.95 3.5 85 3.5V0.5C83.9258 0.5 82.8536 0.512999 81.7835 0.538901L81.8561 3.53802ZM85 3.5C86.05 3.5 87.098 3.51271 88.1439 3.53802L88.2165 0.538901C87.1464 0.512999 86.0742 0.5 85 0.5V3.5ZM94.4235 3.84255C96.518 3.99517 98.6037 4.19838 100.68 4.45142L101.043 1.47345C98.9186 1.21456 96.7845 1.00664 94.6415 0.850484L94.4235 3.84255ZM106.901 5.36247C108.967 5.71626 111.024 6.11953 113.071 6.57151L113.718 3.64209C111.625 3.17987 109.521 2.76739 107.407 2.40548L106.901 5.36247ZM119.178 8.07231C121.199 8.61977 123.21 9.21498 125.21 9.85715L126.127 7.00084C124.084 6.34464 122.029 5.73629 119.962 5.17663L119.178 8.07231ZM131.154 11.9164C133.115 12.6457 135.065 13.4205 137.003 14.2401L138.171 11.4771C136.194 10.6405 134.203 9.8494 132.2 9.10455L131.154 11.9164ZM142.747 16.817C144.636 17.7135 146.514 18.653 148.378 19.6347L149.776 16.9801C147.875 15.9793 145.96 15.0212 144.033 14.1066L142.747 16.817ZM153.891 22.6813C155.701 23.7292 157.498 24.8174 159.281 25.945L160.884 23.4092C159.068 22.2611 157.238 21.1528 155.394 20.0851L153.891 22.6813Z" fill="#AFAFAF"/>
</svg>
