<svg width="168" height="32" viewBox="0 0 168 32" fill="none" xmlns="http://www.w3.org/2000/svg">
<path d="M1.5645 2.6106C1.22727 2.37008 1.14887 1.90172 1.3894 1.5645C1.62992 1.22727 2.09828 1.14887 2.4355 1.3894L1.5645 2.6106ZM168 2L164.337 9.84734L159.372 2.75123L168 2ZM2.4355 1.3894C3.29704 2.00388 4.16202 2.60902 5.03038 3.20475L4.18182 4.44166C3.30587 3.84073 2.43342 3.23035 1.5645 2.6106L2.4355 1.3894ZM10.3179 6.68895C12.1096 7.82171 13.9149 8.91488 15.7332 9.96775L14.9815 11.2658C13.1462 10.2031 11.3243 9.09984 9.51631 7.95682L10.3179 6.68895ZM21.2725 13.029C23.1461 14.0154 25.0326 14.9595 26.9315 15.8606L26.2885 17.2158C24.3705 16.3057 22.4654 15.3523 20.5737 14.3562L21.2725 13.029ZM32.7051 18.4507C34.6528 19.2745 36.6127 20.0534 38.5844 20.7865L38.0616 22.1925C36.069 21.4515 34.0886 20.6645 32.1208 19.8322L32.7051 18.4507ZM44.561 22.8569C46.5714 23.5026 48.5933 24.1011 50.626 24.6516L50.2339 26.0995C48.1786 25.5428 46.1346 24.9378 44.1023 24.2851L44.561 22.8569ZM56.7673 26.1608C58.8255 26.6154 60.8942 27.021 62.9728 27.3768L62.7197 28.8553C60.6174 28.4954 58.5252 28.0852 56.4438 27.6256L56.7673 26.1608ZM69.229 28.2931C71.3175 28.5476 73.4154 28.752 75.522 28.9055L75.413 30.4015C73.2821 30.2462 71.1601 30.0395 69.0476 29.7821L69.229 28.2931ZM81.8379 29.2118C82.8899 29.2372 83.944 29.25 85 29.25V30.75C83.9319 30.75 82.8657 30.7371 81.8016 30.7113L81.8379 29.2118ZM85 29.25C86.056 29.25 87.1101 29.2372 88.1621 29.2118L88.1984 30.7113C87.1343 30.7371 86.0681 30.75 85 30.75V29.25ZM94.478 28.9055C96.5846 28.752 98.6825 28.5476 100.771 28.2931L100.952 29.7821C98.8399 30.0395 96.7179 30.2462 94.587 30.4015L94.478 28.9055ZM107.027 27.3768C109.106 27.021 111.174 26.6154 113.233 26.1609L113.556 27.6256C111.475 28.0852 109.383 28.4954 107.28 28.8553L107.027 27.3768ZM119.374 24.6516C121.407 24.1011 123.429 23.5026 125.439 22.8569L125.898 24.2851C123.865 24.9378 121.821 25.5428 119.766 26.0995L119.374 24.6516ZM131.416 20.7865C133.387 20.0534 135.347 19.2745 137.295 18.4507L137.879 19.8322C135.911 20.6645 133.931 21.4515 131.938 22.1925L131.416 20.7865ZM143.068 15.8606C144.967 14.9595 146.854 14.0154 148.728 13.029L149.426 14.3562C147.535 15.3523 145.629 16.3057 143.712 17.2158L143.068 15.8606ZM154.267 9.96776C156.085 8.91488 157.89 7.82171 159.682 6.68895L160.484 7.95683C158.676 9.09984 156.854 10.2031 155.018 11.2658L154.267 9.96776ZM1.12899 3.2212C0.454538 2.74016 0.297749 1.80344 0.778794 1.12899C1.25984 0.454538 2.19656 0.297749 2.87101 0.778795L1.12899 3.2212ZM168 2L160.674 17.6947L150.745 3.50246L168 2ZM2.87101 0.778795C3.72885 1.39064 4.59009 1.99317 5.45466 2.5863L3.75753 5.06011C2.8778 4.45658 2.0016 3.84358 1.12899 3.2212L2.87101 0.778795ZM10.7186 6.05501C12.5023 7.18264 14.2993 8.27077 16.109 9.31871L14.6057 11.9149C12.7618 10.8472 10.9316 9.7389 9.11554 8.59076L10.7186 6.05501ZM21.6219 12.3653C23.4864 13.347 25.3636 14.2865 27.253 15.183L25.967 17.8934C24.0395 16.9788 22.1251 16.0207 20.2243 15.0199L21.6219 12.3653ZM32.9973 17.7599C34.9349 18.5795 36.8846 19.3543 38.8458 20.0836L37.8002 22.8955C35.7971 22.1506 33.8065 21.3595 31.8286 20.5229L32.9973 17.7599ZM44.7903 22.1429C46.7898 22.785 48.8006 23.3802 50.822 23.9277L50.0378 26.8234C47.9713 26.2637 45.9162 25.6554 43.873 24.9992L44.7903 22.1429ZM56.929 25.4285C58.9756 25.8805 61.0326 26.2837 63.0993 26.6375L62.5932 29.5945C60.479 29.2326 58.3751 28.8201 56.2821 28.3579L56.929 25.4285ZM69.3197 27.5486C71.3963 27.8016 73.482 28.0048 75.5765 28.1574L75.3585 31.1495C73.2154 30.9934 71.0814 30.7854 68.9569 30.5266L69.3197 27.5486ZM81.8561 28.462C82.902 28.4873 83.95 28.5 85 28.5V31.5C83.9258 31.5 82.8536 31.487 81.7835 31.4611L81.8561 28.462ZM85 28.5C86.05 28.5 87.098 28.4873 88.1439 28.462L88.2165 31.4611C87.1464 31.487 86.0742 31.5 85 31.5V28.5ZM94.4235 28.1574C96.518 28.0048 98.6037 27.8016 100.68 27.5486L101.043 30.5266C98.9186 30.7854 96.7845 30.9934 94.6415 31.1495L94.4235 28.1574ZM106.901 26.6375C108.967 26.2837 111.024 25.8805 113.071 25.4285L113.718 28.3579C111.625 28.8201 109.521 29.2326 107.407 29.5945L106.901 26.6375ZM119.178 23.9277C121.199 23.3802 123.21 22.785 125.21 22.1429L126.127 24.9992C124.084 25.6554 122.029 26.2637 119.962 26.8234L119.178 23.9277ZM131.154 20.0836C133.115 19.3543 135.065 18.5795 137.003 17.7599L138.171 20.5229C136.194 21.3595 134.203 22.1506 132.2 22.8955L131.154 20.0836ZM142.747 15.183C144.636 14.2865 146.514 13.347 148.378 12.3653L149.776 15.0199C147.875 16.0207 145.96 16.9788 144.033 17.8934L142.747 15.183ZM153.891 9.31872C155.701 8.27078 157.498 7.18265 159.281 6.05501L160.884 8.59076C159.068 9.7389 157.238 10.8472 155.394 11.9149L153.891 9.31872Z" fill="#AFAFAF"/>
</svg>
