<svg width="45" height="42" viewBox="0 0 45 42" fill="none" xmlns="http://www.w3.org/2000/svg">
<path d="M22.5 39.6295C33.321 39.6295 42.0934 30.5708 42.0934 24.3902C42.0934 18.2096 33.321 9.15088 22.5 9.15088C11.679 9.15088 2.90659 18.2161 2.90659 24.3902C2.90659 30.5643 11.679 39.6295 22.5 39.6295Z" stroke="url(#paint0_linear_24_96)" stroke-width="4.35409" stroke-linejoin="round"/>
<path d="M22.5 30.9212C24.2322 30.9212 25.8934 30.2331 27.1182 29.0082C28.343 27.7834 29.0311 26.1222 29.0311 24.39C29.0311 22.6579 28.343 20.9966 27.1182 19.7718C25.8934 18.547 24.2322 17.8589 22.5 17.8589C20.7678 17.8589 19.1066 18.547 17.8818 19.7718C16.657 20.9966 15.9689 22.6579 15.9689 24.39C15.9689 26.1222 16.657 27.7834 17.8818 29.0082C19.1066 30.2331 20.7678 30.9212 22.5 30.9212Z" stroke="url(#paint1_linear_24_96)" stroke-width="4.35409" stroke-linejoin="round"/>
<path d="M10.8136 7.26351L13.6373 11.204M35.1541 7.74681L32.3294 11.6873M22.5098 2.61987V9.15101" stroke="url(#paint2_linear_24_96)" stroke-width="4.35409" stroke-linecap="round"/>
<defs>
<linearGradient id="paint0_linear_24_96" x1="-7.41494" y1="-33.3922" x2="44.9919" y2="-28.4483" gradientUnits="userSpaceOnUse">
<stop stop-color="#3BD671"/>
<stop offset="1" stop-color="#159843"/>
</linearGradient>
<linearGradient id="paint1_linear_24_96" x1="12.5284" y1="-0.373875" x2="30.0584" y2="0.912378" gradientUnits="userSpaceOnUse">
<stop stop-color="#3BD671"/>
<stop offset="1" stop-color="#159843"/>
</linearGradient>
<linearGradient id="paint2_linear_24_96" x1="4.40253" y1="-10.0367" x2="36.0176" y2="-3.80962" gradientUnits="userSpaceOnUse">
<stop stop-color="#3BD671"/>
<stop offset="1" stop-color="#159843"/>
</linearGradient>
</defs>
</svg>
