<svg width="20" height="20" viewBox="0 0 20 20" fill="none" xmlns="http://www.w3.org/2000/svg">
<path fill-rule="evenodd" clip-rule="evenodd" d="M5.5075 1.6775C6.75685 0.600169 8.3503 0.00517314 10 0C13.3625 0 16.1538 2.5 16.4575 5.72375C18.4475 6.005 20 7.67125 20 9.71625C20 11.9612 18.1275 13.75 15.8588 13.75H12.5C12.3342 13.75 12.1753 13.6842 12.0581 13.5669C11.9408 13.4497 11.875 13.2908 11.875 13.125C11.875 12.9592 11.9408 12.8003 12.0581 12.6831C12.1753 12.5658 12.3342 12.5 12.5 12.5H15.86C17.4737 12.5 18.75 11.235 18.75 9.71625C18.75 8.19625 17.475 6.93125 15.8588 6.93125H15.2338V6.30625C15.235 3.53125 12.91 1.25 10 1.25C8.64984 1.25539 7.34605 1.74304 6.32375 2.625C5.3775 3.44 4.8825 4.4225 4.8825 5.19375V5.75375L4.32625 5.815C2.58 6.00625 1.25 7.44 1.25 9.1475C1.25 10.9812 2.7875 12.5 4.72625 12.5H7.5C7.66576 12.5 7.82473 12.5658 7.94194 12.6831C8.05915 12.8003 8.125 12.9592 8.125 13.125C8.125 13.2908 8.05915 13.4497 7.94194 13.5669C7.82473 13.6842 7.66576 13.75 7.5 13.75H4.72625C2.135 13.75 0 11.7075 0 9.1475C0 6.94375 1.5825 5.11875 3.6775 4.65625C3.85625 3.5775 4.55 2.5025 5.5075 1.6775Z" fill="#F9F9F9"/>
<path fill-rule="evenodd" clip-rule="evenodd" d="M9.5575 5.18249C9.61555 5.12428 9.68452 5.07811 9.76045 5.0466C9.83639 5.01509 9.91779 4.99887 10 4.99887C10.0822 4.99887 10.1636 5.01509 10.2395 5.0466C10.3155 5.07811 10.3844 5.12428 10.4425 5.18249L14.1925 8.93249C14.3099 9.04985 14.3758 9.20902 14.3758 9.37499C14.3758 9.54096 14.3099 9.70013 14.1925 9.81749C14.0751 9.93485 13.916 10.0008 13.75 10.0008C13.584 10.0008 13.4249 9.93485 13.3075 9.81749L10.625 7.13374V18.125C10.625 18.2907 10.5591 18.4497 10.4419 18.5669C10.3247 18.6841 10.1658 18.75 10 18.75C9.83424 18.75 9.67526 18.6841 9.55805 18.5669C9.44084 18.4497 9.375 18.2907 9.375 18.125V7.13374L6.6925 9.81749C6.57514 9.93485 6.41597 10.0008 6.25 10.0008C6.08403 10.0008 5.92485 9.93485 5.8075 9.81749C5.69014 9.70013 5.62421 9.54096 5.62421 9.37499C5.62421 9.20902 5.69014 9.04985 5.8075 8.93249L9.5575 5.18249Z" fill="#F9F9F9"/>
</svg>
