<svg width="46" height="44" viewBox="0 0 46 44" fill="none" xmlns="http://www.w3.org/2000/svg">
<path d="M45.9167 13.6249L32.4375 12.4999L27.1667 0.083252L21.8958 12.4999L8.41667 13.6249L18.625 22.5208L15.5833 35.7083L27.1667 28.7083L38.75 35.7083L35.6875 22.5208L45.9167 13.6249ZM31.625 23.4791L32.4583 27.0416L29.3125 25.1458L27.1667 23.8541L25.0208 25.1458L21.875 27.0416L22.6875 23.4791L23.2708 21.0208L21.375 19.3749L18.5833 16.9583L22.25 16.6458L24.75 16.4374L25.7292 14.1249L27.1667 10.7499L28.6042 14.1249L29.5833 16.4374L32.0833 16.6458L35.7292 16.9583L32.9583 19.3749L31.0417 21.0208L31.625 23.4791ZM0.416669 22.9999C-0.206247 21.9583 0.0604195 20.6874 1.02084 20.0624L6.70834 16.3124L9.97917 19.1458L3.3125 23.5416C2.95834 23.7708 2.5625 23.8958 2.16667 23.8958C1.5 23.8958 0.833336 23.5624 0.416669 22.9999ZM1.02084 39.9999L13.2292 31.9791L12.5833 34.9999L11.875 37.8541L3.3125 43.4999C2.95834 43.7291 2.5625 43.8333 2.16667 43.8333C1.5 43.8333 0.833336 43.4999 0.416669 42.8957C0.117677 42.4302 0.0134606 41.8659 0.12646 41.3243C0.23946 40.7826 0.560637 40.3071 1.02084 39.9999ZM13.25 21.9583L15.1667 23.6458L14.6042 26.1249L3.3125 33.5207C2.95834 33.7499 2.5625 33.8541 2.16667 33.8541C1.5 33.8541 0.833336 33.5416 0.416669 32.9166C0.117129 32.4548 0.0125367 31.8932 0.12574 31.3545C0.238944 30.8158 0.560742 30.3438 1.02084 30.0416L13.25 21.9583Z" fill="url(#paint0_linear_25_12)"/>
<defs>
<linearGradient id="paint0_linear_25_12" x1="-11.9923" y1="-60.9845" x2="49.4892" y2="-56.2582" gradientUnits="userSpaceOnUse">
<stop stop-color="#3BD671"/>
<stop offset="1" stop-color="#159843"/>
</linearGradient>
</defs>
</svg>
