<svg width="36" height="25" viewBox="0 0 36 25" fill="none" xmlns="http://www.w3.org/2000/svg">
<path d="M2 24.5677H34C35.1 24.5677 36 23.6677 36 22.5677C36 21.4677 35.1 20.5677 34 20.5677H2C0.9 20.5677 0 21.4677 0 22.5677C0 23.6677 0.9 24.5677 2 24.5677ZM2 14.5677H34C35.1 14.5677 36 13.6677 36 12.5677C36 11.4677 35.1 10.5677 34 10.5677H2C0.9 10.5677 0 11.4677 0 12.5677C0 13.6677 0.9 14.5677 2 14.5677ZM0 2.56769C0 3.66769 0.9 4.56769 2 4.56769H34C35.1 4.56769 36 3.66769 36 2.56769C36 1.46769 35.1 0.567688 34 0.567688H2C0.9 0.567688 0 1.46769 0 2.56769Z" fill="#F9F9F9"/>
</svg>
