<svg width="376" height="810" viewBox="0 0 376 810" fill="none" xmlns="http://www.w3.org/2000/svg">
<path d="M0.145874 0H375.146L375.146 537.669C375.146 660.971 285.246 765.86 163.396 784.725L0.145874 810V0Z" fill="#282E41" fill-opacity="0.9"/>
<path d="M0.145874 0H374.146V516.089C374.146 644.359 277.069 751.818 149.458 764.805L0.145874 780V0Z" fill="#282E41"/>
<path fill-rule="evenodd" clip-rule="evenodd" d="M375.146 1.20216e-05L255.805 0C255.805 0 251.616 2.70119 182.645 71.5815C177.898 79.685 89.6595 167.634 89.6595 230.501C89.6595 300.539 122.871 365.084 144.548 450.849C172.41 612.455 10.1459 780 10.1459 780L139.478 767.843C273.057 755.287 375.146 643.152 375.146 508.984V1.20216e-05Z" fill="#141513" fill-opacity="0.2"/>
</svg>
