<svg width="76" height="85" viewBox="0 0 76 85" fill="none" xmlns="http://www.w3.org/2000/svg">
<path d="M44.215 45C42.6457 43.1003 40.8296 41.4187 38.815 40H63C63.663 40 64.2989 40.2634 64.7678 40.7322C65.2366 41.2011 65.5 41.837 65.5 42.5C65.5 43.163 65.2366 43.7989 64.7678 44.2678C64.2989 44.7366 63.663 45 63 45H44.215ZM47.5 50C48.31 51.585 48.97 53.255 49.465 55H63C63.663 55 64.2989 54.7366 64.7678 54.2678C65.2366 53.7989 65.5 53.163 65.5 52.5C65.5 51.837 65.2366 51.2011 64.7678 50.7322C64.2989 50.2634 63.663 50 63 50H47.5ZM50.5 62.5C50.5 63.34 50.46 64.175 50.39 65H63C63.663 65 64.2989 64.7366 64.7678 64.2678C65.2366 63.7989 65.5 63.163 65.5 62.5C65.5 61.837 65.2366 61.2011 64.7678 60.7322C64.2989 60.2634 63.663 60 63 60H50.39C50.46 60.825 50.5 61.66 50.5 62.5ZM20.5 10V35.11C18.8083 35.2627 17.1344 35.5723 15.5 36.035V10C15.5 7.34784 16.5536 4.8043 18.4289 2.92893C20.3043 1.05357 22.8478 0 25.5 0H48.43C50.4185 0.00175052 52.3248 0.793075 53.73 2.2L73.305 21.77C74.7101 23.176 75.4996 25.0823 75.5 27.07V70C75.5 72.6522 74.4464 75.1957 72.5711 77.0711C70.6957 78.9464 68.1522 80 65.5 80H44.215C45.48 78.465 46.585 76.79 47.5 75H65.5C66.8261 75 68.0979 74.4732 69.0355 73.5355C69.9732 72.5979 70.5 71.3261 70.5 70V30H53C51.0109 30 49.1032 29.2098 47.6967 27.8033C46.2902 26.3968 45.5 24.4891 45.5 22.5V5H25.5C24.1739 5 22.9021 5.52678 21.9645 6.46447C21.0268 7.40215 20.5 8.67392 20.5 10ZM53 25H69.465L50.5 6.035V22.5C50.5 23.163 50.7634 23.7989 51.2322 24.2678C51.7011 24.7366 52.337 25 53 25ZM23 85C28.9674 85 34.6903 82.6295 38.9099 78.4099C43.1295 74.1903 45.5 68.4674 45.5 62.5C45.5 56.5326 43.1295 50.8097 38.9099 46.5901C34.6903 42.3705 28.9674 40 23 40C17.0326 40 11.3097 42.3705 7.0901 46.5901C2.87053 50.8097 0.5 56.5326 0.5 62.5C0.5 68.4674 2.87053 74.1903 7.0901 78.4099C11.3097 82.6295 17.0326 85 23 85ZM20.5 52.5C20.5 51.837 20.7634 51.2011 21.2322 50.7322C21.7011 50.2634 22.337 50 23 50C23.663 50 24.2989 50.2634 24.7678 50.7322C25.2366 51.2011 25.5 51.837 25.5 52.5V60H30.5C31.163 60 31.7989 60.2634 32.2678 60.7322C32.7366 61.2011 33 61.837 33 62.5C33 63.163 32.7366 63.7989 32.2678 64.2678C31.7989 64.7366 31.163 65 30.5 65H23C22.337 65 21.7011 64.7366 21.2322 64.2678C20.7634 63.7989 20.5 63.163 20.5 62.5V52.5Z" fill="url(#paint0_linear_8_261)"/>
<defs>
<linearGradient id="paint0_linear_8_261" x1="-19.2545" y1="-118.646" x2="81.5178" y2="-112.122" gradientUnits="userSpaceOnUse">
<stop stop-color="#3BD671"/>
<stop offset="1" stop-color="#159843"/>
</linearGradient>
</defs>
</svg>
