<svg width="85" height="84" viewBox="0 0 85 84" fill="none" xmlns="http://www.w3.org/2000/svg">
<path d="M42.5 5.74995C60.875 5.74995 78.75 23.625 78.75 42C78.75 60.375 60.875 77.625 42.5 77.625C24.125 77.625 6.25002 59.7916 6.25002 41.4166C6.25002 23.0416 24.125 5.74995 42.5 5.74995ZM42.5 0.333313C19.5833 0.333313 0.833344 19.0833 0.833344 42C0.833344 64.9166 19.5833 83.6666 42.5 83.6666C65.4167 83.6666 84.1667 64.9166 84.1667 42C84.1667 19.0833 65.4167 0.333313 42.5 0.333313ZM27.625 52.1666L21.9583 49.625C23.125 47.2916 23.75 44.7916 23.75 42.2083C23.75 39.4583 23.125 36.8333 21.9583 34.375L27.625 31.8333C29.2083 35.2083 30 38.6666 30 42.2083C30 45.3333 29.2083 48.6666 27.625 52.1666ZM40.5417 58.4166L35.0833 55.7083C37.2917 51 38.3333 46.1666 38.3333 41.4166C38.3333 36.7083 37.2917 32.375 35.0833 28.2916L40.5417 25.1666C43.2917 30 44.5833 35.4166 44.5833 41.4166C44.5833 47.5416 43.2917 53.2083 40.5417 58.4166ZM53.6667 64.2916L47.9583 61.375C51.25 54.9583 52.9167 48.5416 52.9167 42C52.9167 35.4583 51.25 28.9583 47.9583 22.4583L53.6667 19.7083C57.2917 27.125 59.1667 34.5833 59.1667 42C59.1667 49.5833 57.2917 57 53.6667 64.2916Z" fill="url(#paint0_linear_8_265)"/>
<defs>
<linearGradient id="paint0_linear_8_265" x1="-21.1161" y1="-115.986" x2="90.7203" y2="-107.78" gradientUnits="userSpaceOnUse">
<stop stop-color="#3BD671"/>
<stop offset="1" stop-color="#159843"/>
</linearGradient>
</defs>
</svg>
