<svg width="39" height="39" viewBox="0 0 39 39" fill="none" xmlns="http://www.w3.org/2000/svg">
<path d="M33.5714 6.14282H9.57142C7.67788 6.14282 6.14285 7.67785 6.14285 9.57139V33.5714C6.14285 35.4649 7.67788 37 9.57142 37H33.5714C35.465 37 37 35.4649 37 33.5714V9.57139C37 7.67785 35.465 6.14282 33.5714 6.14282Z" stroke="#F9F9F9" stroke-width="2.57143" stroke-linecap="round" stroke-linejoin="round"/>
<path d="M15.5714 18.1429C16.9916 18.1429 18.1429 16.9916 18.1429 15.5714C18.1429 14.1513 16.9916 13 15.5714 13C14.1513 13 13 14.1513 13 15.5714C13 16.9916 14.1513 18.1429 15.5714 18.1429Z" stroke="#F9F9F9" stroke-width="2.57143" stroke-linecap="round" stroke-linejoin="round"/>
<path d="M37 26.7143L28.4286 18.1428L9.57144 37" stroke="#F9F9F9" stroke-width="2.57143" stroke-linecap="round" stroke-linejoin="round"/>
<path d="M27.5714 1H4.42857C2.53503 1 1 2.53502 1 4.42857V20.7143" stroke="#F9F9F9" stroke-width="1.71429"/>
</svg>
