<svg width="47" height="47" viewBox="0 0 47 47" fill="none" xmlns="http://www.w3.org/2000/svg">
<path d="M39.5172 12.3189L25.8137 5.91412C25.0693 5.5662 24.2577 5.38579 23.4359 5.38562C22.6142 5.38545 21.8025 5.56552 21.0579 5.91314L7.48374 12.2484C7.09627 12.4291 6.76842 12.7167 6.53869 13.0774C6.30896 13.438 6.18687 13.8566 6.18677 14.2842C6.18666 14.7118 6.30855 15.1305 6.53811 15.4912C6.76767 15.852 7.09538 16.1397 7.48276 16.3207L21.1862 22.7254C21.9305 23.0735 22.7422 23.2541 23.5639 23.2544C24.3856 23.2548 25.1974 23.0749 25.942 22.7274L39.5162 16.3912C39.9037 16.2104 40.2315 15.9228 40.4613 15.5622C40.691 15.2016 40.8131 14.7829 40.8132 14.3553C40.8133 13.9278 40.6914 13.509 40.4618 13.1483C40.2323 12.7876 39.9046 12.4998 39.5172 12.3189Z" stroke="#F9F9F9" stroke-width="2.35" stroke-linecap="round" stroke-linejoin="round"/>
<path d="M13.0009 18.8L7.55866 21.1589C7.17272 21.326 6.84613 21.5918 6.61726 21.9253C6.3884 22.2588 6.26677 22.646 6.26666 23.0414C6.26656 23.4369 6.38799 23.8241 6.61668 24.1577C6.84538 24.4913 7.17183 24.7573 7.55769 24.9245L21.1975 30.8444C21.9384 31.1661 22.7462 31.3331 23.5641 31.3334C24.382 31.3337 25.19 31.1674 25.9312 30.8462L39.4424 24.9897C39.828 24.8225 40.1544 24.5567 40.383 24.2233C40.6117 23.8899 40.7332 23.5029 40.7333 23.1076C40.7334 22.7124 40.6121 22.3253 40.3836 21.9918C40.1551 21.6583 39.8289 21.3923 39.4434 21.225L34.0001 18.8625" stroke="#F9F9F9" stroke-width="2.35" stroke-linecap="round" stroke-linejoin="round"/>
<path d="M13.0009 28.2L7.55866 30.2641C7.17272 30.4102 6.84613 30.6429 6.61726 30.9347C6.3884 31.2264 6.26677 31.5653 6.26666 31.9113C6.26656 32.2573 6.38799 32.5962 6.61668 32.8881C6.84538 33.18 7.17183 33.4127 7.55769 33.559L21.1975 38.7391C21.9384 39.0205 22.7464 39.1665 23.5642 39.1666C24.3821 39.1668 25.1901 39.0211 25.9312 38.7399L39.4424 33.6153C39.828 33.469 40.1544 33.2364 40.383 32.9447C40.6117 32.653 40.7332 32.3143 40.7333 31.9684C40.7334 31.6226 40.6121 31.2838 40.3836 30.992C40.1551 30.7003 39.8289 30.4675 39.4434 30.3211L34.0001 28.2538" stroke="#F9F9F9" stroke-width="2.35" stroke-linecap="round" stroke-linejoin="round"/>
</svg>
