<svg width="41" height="41" viewBox="0 0 41 41" fill="none" xmlns="http://www.w3.org/2000/svg">
<path d="M35.875 11.5312V35.875C35.875 37.2342 35.335 38.5378 34.3739 39.4989C33.4128 40.46 32.1092 41 30.75 41H10.25C8.89077 41 7.5872 40.46 6.62608 39.4989C5.66495 38.5378 5.125 37.2342 5.125 35.875V5.125C5.125 3.76577 5.66495 2.4622 6.62608 1.50108C7.5872 0.539954 8.89077 0 10.25 0L24.3438 0L35.875 11.5312ZM28.1875 11.5312C27.1681 11.5312 26.1904 11.1263 25.4696 10.4054C24.7487 9.6846 24.3438 8.70693 24.3438 7.6875V2.5625H10.25C9.57038 2.5625 8.9186 2.83248 8.43804 3.31304C7.95748 3.7936 7.6875 4.44538 7.6875 5.125V35.875C7.6875 36.5546 7.95748 37.2064 8.43804 37.687C8.9186 38.1675 9.57038 38.4375 10.25 38.4375H30.75C31.4296 38.4375 32.0814 38.1675 32.562 37.687C33.0425 37.2064 33.3125 36.5546 33.3125 35.875V11.5312H28.1875Z" fill="#F9F9F9"/>
<path d="M22.1554 17.0305C22.2744 16.9111 22.4158 16.8165 22.5715 16.7519C22.7271 16.6873 22.894 16.6541 23.0625 16.6541C23.2311 16.6541 23.3979 16.6873 23.5536 16.7519C23.7093 16.8165 23.8506 16.9111 23.9697 17.0305L29.0947 22.1555C29.214 22.2745 29.3086 22.4159 29.3732 22.5715C29.4378 22.7272 29.4711 22.8941 29.4711 23.0626C29.4711 23.2311 29.4378 23.398 29.3732 23.5537C29.3086 23.7093 29.214 23.8507 29.0947 23.9697L23.9697 29.0947C23.7291 29.3353 23.4028 29.4705 23.0625 29.4705C22.7223 29.4705 22.396 29.3353 22.1554 29.0947C21.9148 28.8541 21.7797 28.5278 21.7797 28.1876C21.7797 27.8474 21.9148 27.5211 22.1554 27.2805L26.3758 23.0626L22.1554 18.8447C22.0361 18.7257 21.9414 18.5843 21.8768 18.4287C21.8122 18.273 21.779 18.1061 21.779 17.9376C21.779 17.7691 21.8122 17.6022 21.8768 17.4465C21.9414 17.2909 22.0361 17.1495 22.1554 17.0305ZM18.8447 17.0305C18.7256 16.9111 18.5843 16.8165 18.4286 16.7519C18.2729 16.6873 18.1061 16.6541 17.9375 16.6541C17.769 16.6541 17.6021 16.6873 17.4465 16.7519C17.2908 16.8165 17.1494 16.9111 17.0304 17.0305L11.9054 22.1555C11.7861 22.2745 11.6914 22.4159 11.6268 22.5715C11.5622 22.7272 11.529 22.8941 11.529 23.0626C11.529 23.2311 11.5622 23.398 11.6268 23.5537C11.6914 23.7093 11.7861 23.8507 11.9054 23.9697L17.0304 29.0947C17.271 29.3353 17.5973 29.4705 17.9375 29.4705C18.2778 29.4705 18.6041 29.3353 18.8447 29.0947C19.0852 28.8541 19.2204 28.5278 19.2204 28.1876C19.2204 27.8474 19.0852 27.5211 18.8447 27.2805L14.6242 23.0626L18.8447 18.8447C18.964 18.7257 19.0586 18.5843 19.1232 18.4287C19.1878 18.273 19.2211 18.1061 19.2211 17.9376C19.2211 17.7691 19.1878 17.6022 19.1232 17.4465C19.0586 17.2909 18.964 17.1495 18.8447 17.0305Z" fill="#F9F9F9"/>
</svg>
