<svg width="43" height="43" viewBox="0 0 43 43" fill="none" xmlns="http://www.w3.org/2000/svg">
<path d="M25.0833 3.58325H10.75C9.79963 3.58325 8.8882 3.96078 8.21619 4.63279C7.54419 5.30479 7.16666 6.21623 7.16666 7.16659V35.8333C7.16666 36.7836 7.54419 37.695 8.21619 38.367C8.8882 39.0391 9.79963 39.4166 10.75 39.4166H32.25C33.2003 39.4166 34.1118 39.0391 34.7838 38.367C35.4558 37.695 35.8333 36.7836 35.8333 35.8333V14.3333L25.0833 3.58325Z" stroke="#F9F9F9" stroke-width="2.6875" stroke-linecap="round" stroke-linejoin="round"/>
<path d="M25.0833 3.58325V14.3333H35.8333" stroke="#F9F9F9" stroke-width="2.6875" stroke-linecap="round" stroke-linejoin="round"/>
<path d="M28.6667 21.5H14.3333" stroke="#F9F9F9" stroke-width="2.6875" stroke-linecap="round" stroke-linejoin="round"/>
<path d="M17.9167 16.125H16.125H14.3333" stroke="#F9F9F9" stroke-width="2.6875" stroke-linecap="round" stroke-linejoin="round"/>
<rect x="3.58334" y="25.0833" width="35.8333" height="8.95833" rx="1.79167" fill="#F9F9F9" fill-opacity="0.8"/>
<path d="M17.6228 28.6825V29.9367H19.307V30.7322H17.6228V32.058H19.522V32.875H16.6195V27.8655H19.522V28.6825H17.6228ZM23.4295 32.875L22.3473 31.1908L21.3655 32.875H20.2331L21.8098 30.3523L20.2116 27.8727H21.3655L22.4476 29.5497L23.4223 27.8727H24.5546L22.9851 30.3882L24.5833 32.875H23.4295ZM26.3502 28.6825V29.9367H28.0344V30.7322H26.3502V32.058H28.2494V32.875H25.3469V27.8655H28.2494V28.6825H26.3502Z" fill="#282E41"/>
</svg>
