<svg width="43" height="43" viewBox="0 0 43 43" fill="none" xmlns="http://www.w3.org/2000/svg">
<path d="M37.625 12.0938V37.625C37.625 39.0505 37.0587 40.4177 36.0507 41.4257C35.0427 42.4337 33.6755 43 32.25 43H10.75C9.32446 43 7.95731 42.4337 6.9493 41.4257C5.94129 40.4177 5.375 39.0505 5.375 37.625V5.375C5.375 3.94946 5.94129 2.58231 6.9493 1.5743C7.95731 0.566293 9.32446 0 10.75 0L25.5312 0L37.625 12.0938ZM29.5625 12.0938C28.4933 12.0938 27.468 11.669 26.712 10.913C25.956 10.157 25.5312 9.13165 25.5312 8.0625V2.6875H10.75C10.0372 2.6875 9.35365 2.97065 8.84965 3.47465C8.34565 3.97865 8.0625 4.66223 8.0625 5.375V37.625C8.0625 38.3378 8.34565 39.0213 8.84965 39.5253C9.35365 40.0294 10.0372 40.3125 10.75 40.3125H32.25C32.9628 40.3125 33.6463 40.0294 34.1503 39.5253C34.6544 39.0213 34.9375 38.3378 34.9375 37.625V12.0938H29.5625Z" fill="#F9F9F9"/>
<path d="M27.2125 26.2249C27.4349 25.7428 28.1201 25.7428 28.3425 26.2249L29.8259 29.441C29.9165 29.6375 30.1027 29.7728 30.3176 29.7983L33.8347 30.2153C34.362 30.2778 34.5737 30.9295 34.1839 31.2899L31.5836 33.6946C31.4248 33.8415 31.3536 34.0604 31.3958 34.2727L32.0861 37.7465C32.1895 38.2673 31.6352 38.67 31.1719 38.4107L28.0814 36.6808C27.8925 36.5751 27.6624 36.5751 27.4736 36.6808L24.383 38.4107C23.9198 38.67 23.3654 38.2673 23.4689 37.7465L24.1591 34.2727C24.2013 34.0604 24.1302 33.8415 23.9713 33.6946L21.371 31.2899C20.9812 30.9295 21.1929 30.2778 21.7202 30.2153L25.2373 29.7983C25.4522 29.7728 25.6384 29.6375 25.729 29.441L27.2125 26.2249Z" fill="#F9F9F9"/>
</svg>
