<svg width="39" height="39" viewBox="0 0 39 39" fill="none" xmlns="http://www.w3.org/2000/svg">
<path d="M28.5556 1H6.33334C3.38782 1 1 3.38782 1 6.33333V21.4444" stroke="#F9F9F9" stroke-width="1.77778"/>
<path d="M33.6089 5.88879H9.28C7.40714 5.88879 5.88889 7.40705 5.88889 9.2799V33.6088C5.88889 35.4817 7.40714 36.9999 9.28 36.9999H33.6089C35.4817 36.9999 37 35.4817 37 33.6088V9.2799C37 7.40705 35.4817 5.88879 33.6089 5.88879Z" stroke="#F9F9F9" stroke-width="2.33333" stroke-linecap="round" stroke-linejoin="round"/>
<path d="M13.6667 5.88879V36.9999" stroke="#F9F9F9" stroke-width="2.33333" stroke-linecap="round" stroke-linejoin="round"/>
<path d="M29.2222 5.88879V36.9999" stroke="#F9F9F9" stroke-width="2.33333" stroke-linecap="round" stroke-linejoin="round"/>
<path d="M5.88889 21.4445H37" stroke="#F9F9F9" stroke-width="2.33333" stroke-linecap="round" stroke-linejoin="round"/>
<path d="M5.88889 13.6666H13.6667" stroke="#F9F9F9" stroke-width="2.33333" stroke-linecap="round" stroke-linejoin="round"/>
<path d="M5.88889 29.2222H13.6667" stroke="#F9F9F9" stroke-width="2.33333" stroke-linecap="round" stroke-linejoin="round"/>
<path d="M29.2222 29.2222H37" stroke="#F9F9F9" stroke-width="2.33333" stroke-linecap="round" stroke-linejoin="round"/>
<path d="M29.2222 13.6666H37" stroke="#F9F9F9" stroke-width="2.33333" stroke-linecap="round" stroke-linejoin="round"/>
</svg>
