<svg width="46" height="50" viewBox="0 0 46 50" fill="none" xmlns="http://www.w3.org/2000/svg">
<path d="M9.25 0.4375L0.65625 10.75H5.8125V19.3438H12.6875V10.75H17.8437L9.25 0.4375ZM33.3125 0.4375V9.03125H28.1562L36.75 19.3438L45.3437 9.03125H40.1875V0.4375H33.3125ZM41.9166 22.4487C41.3494 22.4616 40.8196 22.7083 40.0968 23.4795L39.3919 24.2281L38.6601 23.5062C37.8665 22.7242 37.2404 22.5083 36.6056 22.5362C35.971 22.5641 35.2247 22.8977 34.39 23.5733L33.722 24.1137L33.0876 23.5363C32.1315 22.6714 31.3167 22.4152 30.5363 22.4554C29.9682 22.4849 29.3788 22.6989 28.7907 23.0731L33.1916 30.9887C34.8517 32.0041 38.244 32.3862 40.5769 31.2105L44.8302 23.3316C44.0234 23.0026 43.2983 22.6656 42.6716 22.5362C42.4448 22.4893 42.2341 22.4548 42.0303 22.4487C41.9924 22.4477 41.9544 22.4477 41.9165 22.4487H41.9166ZM4.95312 22.7812C0.65625 22.7812 0.65625 22.7812 0.65625 27.0781V44.2715C0.65625 48.5625 0.65625 48.5625 4.95312 48.5625H13.5469C17.8437 48.5625 17.8437 48.5625 17.8437 44.2656V27.0781C17.8437 22.7812 17.8437 22.7812 13.5469 22.7812H4.95312ZM32.2517 32.7816V32.7818C30.3144 34.1506 28.7588 36.5112 28.1562 39.9688C27.5724 43.3199 28.4922 45.583 30.12 47.1255C31.748 48.6681 34.1915 49.4607 36.6728 49.4284C39.1542 49.3962 41.6288 48.5358 43.2926 46.9646C44.9566 45.3933 45.8977 43.1592 45.364 39.962C44.8122 36.658 43.3874 34.3603 41.5838 32.9696C38.5242 34.5869 34.6988 34.2432 32.2517 32.7816Z" fill="url(#paint0_linear_25_8)"/>
<defs>
<linearGradient id="paint0_linear_25_8" x1="-11.1589" y1="-67.947" x2="49.0936" y2="-63.8991" gradientUnits="userSpaceOnUse">
<stop stop-color="#3BD671"/>
<stop offset="1" stop-color="#159843"/>
</linearGradient>
</defs>
</svg>
